<svg width="148" height="54" viewBox="0 0 148 54" version="1.1" xmlns="http://www.w3.org/2000/svg" xmlns:xlink="http://www.w3.org/1999/xlink">
<g id="Canvas" fill="none">
<g id="ERHABEN RESEARCH">
<path d="M 13.8496 17.5645L 6.30273 17.5645L 6.30273 22.3086L 15.2168 22.3086L 15.2168 26L 1.50391 26L 1.50391 6.09375L 15.2441 6.09375L 15.2441 9.79883L 6.30273 9.79883L 6.30273 13.9961L 13.8496 13.9961L 13.8496 17.5645ZM 25.6884 18.9727L 23.0907 18.9727L 23.0907 26L 18.2919 26L 18.2919 6.09375L 26.1259 6.09375C 28.4865 6.09375 30.3322 6.61784 31.663 7.66602C 32.9937 8.71419 33.6591 10.1953 33.6591 12.1094C 33.6591 13.4948 33.3765 14.6432 32.8114 15.5547C 32.2554 16.4661 31.3804 17.2044 30.1864 17.7695L 34.3427 25.7949L 34.3427 26L 29.202 26L 25.6884 18.9727ZM 23.0907 15.2676L 26.1259 15.2676C 27.0373 15.2676 27.7209 15.0306 28.1766 14.5566C 28.6415 14.0736 28.8739 13.4036 28.8739 12.5469C 28.8739 11.6901 28.6415 11.0202 28.1766 10.5371C 27.7118 10.0449 27.0282 9.79883 26.1259 9.79883L 23.0907 9.79883L 23.0907 15.2676ZM 54.3162 26L 49.5447 26L 49.5447 17.6875L 42.4763 17.6875L 42.4763 26L 37.6775 26L 37.6775 6.09375L 42.4763 6.09375L 42.4763 13.9961L 49.5447 13.9961L 49.5447 6.09375L 54.3162 6.09375L 54.3162 26ZM 70.0377 22.2812L 63.4616 22.2812L 62.3131 26L 57.1862 26L 64.487 6.09375L 68.9987 6.09375L 76.3541 26L 71.1998 26L 70.0377 22.2812ZM 64.61 18.5762L 68.8893 18.5762L 66.7428 11.6719L 64.61 18.5762ZM 78.937 26L 78.937 6.09375L 86.0874 6.09375C 88.6486 6.09375 90.5946 6.56315 91.9253 7.50195C 93.2652 8.44076 93.9351 9.80339 93.9351 11.5898C 93.9351 12.6198 93.6981 13.4993 93.2241 14.2285C 92.7502 14.9577 92.0529 15.4954 91.1323 15.8418C 92.1714 16.1152 92.9689 16.6257 93.5249 17.373C 94.0809 18.1204 94.3589 19.0319 94.3589 20.1074C 94.3589 22.0579 93.7391 23.5254 92.4995 24.5098C 91.2691 25.485 89.4416 25.9818 87.0171 26L 78.937 26ZM 83.7359 17.5371L 83.7359 22.3086L 86.8804 22.3086C 87.7463 22.3086 88.4116 22.1126 88.8765 21.7207C 89.3413 21.3197 89.5738 20.7591 89.5738 20.0391C 89.5738 18.3802 88.7489 17.5462 87.0991 17.5371L 83.7359 17.5371ZM 83.7359 14.3926L 86.2378 14.3926C 87.286 14.3835 88.0334 14.1921 88.48 13.8184C 88.9266 13.4447 89.1499 12.8932 89.1499 12.1641C 89.1499 11.3255 88.9084 10.724 88.4253 10.3594C 87.9422 9.98568 87.1629 9.79883 86.0874 9.79883L 83.7359 9.79883L 83.7359 14.3926ZM 110.477 17.5645L 102.93 17.5645L 102.93 22.3086L 111.844 22.3086L 111.844 26L 98.1313 26L 98.1313 6.09375L 111.871 6.09375L 111.871 9.79883L 102.93 9.79883L 102.93 13.9961L 110.477 13.9961L 110.477 17.5645ZM 131.544 26L 126.773 26L 119.718 13.6133L 119.718 26L 114.919 26L 114.919 6.09375L 119.718 6.09375L 126.759 18.4805L 126.759 6.09375L 131.544 6.09375L 131.544 26ZM 8.90039 51.9727L 6.30273 51.9727L 6.30273 59L 1.50391 59L 1.50391 39.0938L 9.33789 39.0938C 11.6986 39.0938 13.5443 39.6178 14.875 40.666C 16.2057 41.7142 16.8711 43.1953 16.8711 45.1094C 16.8711 46.4948 16.5885 47.6432 16.0234 48.5547C 15.4674 49.4661 14.5924 50.2044 13.3984 50.7695L 17.5547 58.7949L 17.5547 59L 12.4141 59L 8.90039 51.9727ZM 6.30273 48.2676L 9.33789 48.2676C 10.2493 48.2676 10.9329 48.0306 11.3887 47.5566C 11.8535 47.0736 12.0859 46.4036 12.0859 45.5469C 12.0859 44.6901 11.8535 44.0202 11.3887 43.5371C 10.9238 43.0449 10.2402 42.7988 9.33789 42.7988L 6.30273 42.7988L 6.30273 48.2676ZM 33.2352 50.5645L 25.6884 50.5645L 25.6884 55.3086L 34.6024 55.3086L 34.6024 59L 20.8895 59L 20.8895 39.0938L 34.6298 39.0938L 34.6298 42.7988L 25.6884 42.7988L 25.6884 46.9961L 33.2352 46.9961L 33.2352 50.5645ZM 47.9451 53.709C 47.9451 53.0072 47.6944 52.4603 47.1931 52.0684C 46.7009 51.6764 45.8305 51.2708 44.5818 50.8516C 43.3331 50.4323 42.3123 50.0267 41.5193 49.6348C 38.9399 48.3678 37.6502 46.627 37.6502 44.4121C 37.6502 43.3092 37.9692 42.3385 38.6072 41.5C 39.2543 40.6523 40.1658 39.9961 41.3416 39.5312C 42.5173 39.0573 43.839 38.8203 45.3064 38.8203C 46.7374 38.8203 48.018 39.0755 49.1482 39.5859C 50.2875 40.0964 51.1716 40.8255 51.8005 41.7734C 52.4295 42.7122 52.7439 43.7878 52.7439 45L 47.9588 45C 47.9588 44.1888 47.7081 43.5599 47.2068 43.1133C 46.7146 42.6667 46.0447 42.4434 45.197 42.4434C 44.3403 42.4434 43.6612 42.6348 43.1599 43.0176C 42.6677 43.3913 42.4216 43.8698 42.4216 44.4531C 42.4216 44.9635 42.6951 45.4284 43.242 45.8477C 43.7888 46.2578 44.7504 46.6862 46.1267 47.1328C 47.503 47.5703 48.6332 48.0443 49.5173 48.5547C 51.6684 49.7943 52.7439 51.5033 52.7439 53.6816C 52.7439 55.4225 52.0877 56.7897 50.7752 57.7832C 49.4627 58.7767 47.6625 59.2734 45.3748 59.2734C 43.7615 59.2734 42.2986 58.9863 40.9861 58.4121C 39.6827 57.8288 38.6983 57.0358 38.033 56.0332C 37.3767 55.0215 37.0486 53.8594 37.0486 52.5469L 41.8611 52.5469C 41.8611 53.6133 42.1345 54.4017 42.6814 54.9121C 43.2374 55.4134 44.1352 55.6641 45.3748 55.6641C 46.1677 55.6641 46.7921 55.4954 47.2478 55.1582C 47.7127 54.8118 47.9451 54.3288 47.9451 53.709ZM 68.6705 50.5645L 61.1237 50.5645L 61.1237 55.3086L 70.0377 55.3086L 70.0377 59L 56.3248 59L 56.3248 39.0938L 70.0651 39.0938L 70.0651 42.7988L 61.1237 42.7988L 61.1237 46.9961L 68.6705 46.9961L 68.6705 50.5645ZM 84.4195 55.2812L 77.8433 55.2812L 76.6948 59L 71.5679 59L 78.8687 39.0938L 83.3804 39.0938L 90.7359 59L 85.5816 59L 84.4195 55.2812ZM 78.9917 51.5762L 83.271 51.5762L 81.1245 44.6719L 78.9917 51.5762ZM 100.715 51.9727L 98.1176 51.9727L 98.1176 59L 93.3188 59L 93.3188 39.0938L 101.153 39.0938C 103.513 39.0938 105.359 39.6178 106.69 40.666C 108.021 41.7142 108.686 43.1953 108.686 45.1094C 108.686 46.4948 108.403 47.6432 107.838 48.5547C 107.282 49.4661 106.407 50.2044 105.213 50.7695L 109.37 58.7949L 109.37 59L 104.229 59L 100.715 51.9727ZM 98.1176 48.2676L 101.153 48.2676C 102.064 48.2676 102.748 48.0306 103.204 47.5566C 103.668 47.0736 103.901 46.4036 103.901 45.5469C 103.901 44.6901 103.668 44.0202 103.204 43.5371C 102.739 43.0449 102.055 42.7988 101.153 42.7988L 98.1176 42.7988L 98.1176 48.2676ZM 128.81 52.2598C 128.746 53.6452 128.372 54.8711 127.689 55.9375C 127.005 56.9948 126.044 57.8151 124.804 58.3984C 123.574 58.9818 122.165 59.2734 120.579 59.2734C 117.963 59.2734 115.904 58.4212 114.4 56.7168C 112.896 55.0124 112.144 52.6061 112.144 49.498L 112.144 48.5137C 112.144 46.5632 112.481 44.8587 113.156 43.4004C 113.839 41.9329 114.819 40.8027 116.095 40.0098C 117.371 39.2077 118.848 38.8066 120.525 38.8066C 122.94 38.8066 124.881 39.4447 126.349 40.7207C 127.816 41.9876 128.65 43.7376 128.851 45.9707L 124.066 45.9707C 124.029 44.7585 123.724 43.888 123.15 43.3594C 122.575 42.8307 121.7 42.5664 120.525 42.5664C 119.331 42.5664 118.456 43.013 117.9 43.9062C 117.344 44.7995 117.052 46.2259 117.025 48.1855L 117.025 49.5938C 117.025 51.7174 117.289 53.235 117.818 54.1465C 118.355 55.0579 119.276 55.5137 120.579 55.5137C 121.682 55.5137 122.525 55.2539 123.109 54.7344C 123.692 54.2148 124.002 53.39 124.038 52.2598L 128.81 52.2598ZM 148.838 59L 144.067 59L 144.067 50.6875L 136.998 50.6875L 136.998 59L 132.199 59L 132.199 39.0938L 136.998 39.0938L 136.998 46.9961L 144.067 46.9961L 144.067 39.0938L 148.838 39.0938L 148.838 59Z" transform="translate(-1 -6)" fill="black"/>
</g>
</g>
</svg>

